<?xml version="1.0" encoding="UTF-8" standalone="no"?>
<svg
   xmlns:dc="http://purl.org/dc/elements/1.1/"
   xmlns:cc="http://creativecommons.org/ns#"
   xmlns:rdf="http://www.w3.org/1999/02/22-rdf-syntax-ns#"
   xmlns:svg="http://www.w3.org/2000/svg"
   xmlns="http://www.w3.org/2000/svg"
   xmlns:sodipodi="http://sodipodi.sourceforge.net/DTD/sodipodi-0.dtd"
   xmlns:inkscape="http://www.inkscape.org/namespaces/inkscape"
   width="194mm"
   height="72mm"
   viewBox="0 0 194 72"
   version="1.1"
   id="svg8"
   inkscape:version="1.0.2-2 (e86c870879, 2021-01-15)"
   sodipodi:docname="body.svg">
  <defs
     id="defs2">
    <inkscape:path-effect
       effect="bspline"
       id="path-effect955"
       is_visible="true"
       lpeversion="1"
       weight="33.333333"
       steps="2"
       helper_size="0"
       apply_no_weight="true"
       apply_with_weight="true"
       only_selected="false" />
    <inkscape:path-effect
       effect="bspline"
       id="path-effect949"
       is_visible="true"
       lpeversion="1"
       weight="33.333333"
       steps="2"
       helper_size="0"
       apply_no_weight="true"
       apply_with_weight="true"
       only_selected="false" />
    <inkscape:path-effect
       effect="bspline"
       id="path-effect943"
       is_visible="true"
       lpeversion="1"
       weight="33.333333"
       steps="2"
       helper_size="0"
       apply_no_weight="true"
       apply_with_weight="true"
       only_selected="false" />
    <inkscape:path-effect
       effect="bspline"
       id="path-effect939"
       is_visible="true"
       lpeversion="1"
       weight="33.333333"
       steps="2"
       helper_size="0"
       apply_no_weight="true"
       apply_with_weight="true"
       only_selected="false" />
    <inkscape:path-effect
       effect="bspline"
       id="path-effect925"
       is_visible="true"
       lpeversion="1"
       weight="33.333333"
       steps="2"
       helper_size="0"
       apply_no_weight="true"
       apply_with_weight="true"
       only_selected="false" />
    <inkscape:path-effect
       effect="bspline"
       id="path-effect921"
       is_visible="true"
       lpeversion="1"
       weight="33.333333"
       steps="2"
       helper_size="0"
       apply_no_weight="true"
       apply_with_weight="true"
       only_selected="false" />
    <inkscape:path-effect
       effect="bspline"
       id="path-effect917"
       is_visible="true"
       lpeversion="1"
       weight="33.333333"
       steps="2"
       helper_size="0"
       apply_no_weight="true"
       apply_with_weight="true"
       only_selected="false" />
    <inkscape:path-effect
       effect="bspline"
       id="path-effect913"
       is_visible="true"
       lpeversion="1"
       weight="33.333333"
       steps="2"
       helper_size="0"
       apply_no_weight="true"
       apply_with_weight="true"
       only_selected="false" />
    <inkscape:path-effect
       effect="bspline"
       id="path-effect909"
       is_visible="true"
       lpeversion="1"
       weight="33.333333"
       steps="2"
       helper_size="0"
       apply_no_weight="true"
       apply_with_weight="true"
       only_selected="false" />
    <inkscape:path-effect
       effect="bspline"
       id="path-effect905"
       is_visible="true"
       lpeversion="1"
       weight="33.333333"
       steps="2"
       helper_size="0"
       apply_no_weight="true"
       apply_with_weight="true"
       only_selected="false" />
    <inkscape:path-effect
       effect="bspline"
       id="path-effect901"
       is_visible="true"
       lpeversion="1"
       weight="33.333333"
       steps="2"
       helper_size="0"
       apply_no_weight="true"
       apply_with_weight="true"
       only_selected="false" />
    <inkscape:path-effect
       effect="bspline"
       id="path-effect897"
       is_visible="true"
       lpeversion="1"
       weight="33.333333"
       steps="2"
       helper_size="0"
       apply_no_weight="true"
       apply_with_weight="true"
       only_selected="false" />
    <inkscape:path-effect
       effect="bspline"
       id="path-effect893"
       is_visible="true"
       lpeversion="1"
       weight="33.333333"
       steps="2"
       helper_size="0"
       apply_no_weight="true"
       apply_with_weight="true"
       only_selected="false" />
    <inkscape:path-effect
       effect="bspline"
       id="path-effect885"
       is_visible="true"
       lpeversion="1"
       weight="33.333333"
       steps="2"
       helper_size="0"
       apply_no_weight="true"
       apply_with_weight="true"
       only_selected="false" />
    <inkscape:path-effect
       effect="bspline"
       id="path-effect881"
       is_visible="true"
       lpeversion="1"
       weight="33.333333"
       steps="2"
       helper_size="0"
       apply_no_weight="true"
       apply_with_weight="true"
       only_selected="false" />
    <inkscape:path-effect
       effect="bspline"
       id="path-effect869"
       is_visible="true"
       lpeversion="1"
       weight="33.333333"
       steps="2"
       helper_size="0"
       apply_no_weight="true"
       apply_with_weight="true"
       only_selected="false" />
    <inkscape:path-effect
       effect="bspline"
       id="path-effect865"
       is_visible="true"
       lpeversion="1"
       weight="33.333333"
       steps="2"
       helper_size="0"
       apply_no_weight="true"
       apply_with_weight="true"
       only_selected="false" />
    <inkscape:path-effect
       effect="bspline"
       id="path-effect853"
       is_visible="true"
       lpeversion="1"
       weight="33.333333"
       steps="2"
       helper_size="0"
       apply_no_weight="true"
       apply_with_weight="true"
       only_selected="false" />
    <inkscape:path-effect
       effect="bspline"
       id="path-effect847"
       is_visible="true"
       lpeversion="1"
       weight="33.333333"
       steps="2"
       helper_size="0"
       apply_no_weight="true"
       apply_with_weight="true"
       only_selected="false" />
    <inkscape:path-effect
       effect="bspline"
       id="path-effect843"
       is_visible="true"
       lpeversion="1"
       weight="33.333333"
       steps="2"
       helper_size="0"
       apply_no_weight="true"
       apply_with_weight="true"
       only_selected="false" />
    <inkscape:path-effect
       effect="bspline"
       id="path-effect839"
       is_visible="true"
       lpeversion="1"
       weight="33.333333"
       steps="2"
       helper_size="0"
       apply_no_weight="true"
       apply_with_weight="true"
       only_selected="false" />
    <inkscape:path-effect
       effect="bspline"
       id="path-effect835"
       is_visible="true"
       lpeversion="1"
       weight="33.333333"
       steps="2"
       helper_size="0"
       apply_no_weight="true"
       apply_with_weight="true"
       only_selected="false" />
  </defs>
  <sodipodi:namedview
     id="base"
     pagecolor="#ffffff"
     bordercolor="#666666"
     borderopacity="1.0"
     inkscape:pageopacity="0.0"
     inkscape:pageshadow="2"
     inkscape:zoom="0.7"
     inkscape:cx="167.46889"
     inkscape:cy="-55.098656"
     inkscape:document-units="mm"
     inkscape:current-layer="layer1"
     inkscape:document-rotation="0"
     showgrid="false"
     inkscape:window-width="1920"
     inkscape:window-height="1020"
     inkscape:window-x="0"
     inkscape:window-y="0"
     inkscape:window-maximized="0" />
  <metadata
     id="metadata5">
    <rdf:RDF>
      <cc:Work
         rdf:about="">
        <dc:format>image/svg+xml</dc:format>
        <dc:type
           rdf:resource="http://purl.org/dc/dcmitype/StillImage" />
        <dc:title></dc:title>
      </cc:Work>
    </rdf:RDF>
  </metadata>
  <g
     inkscape:label="レイヤー 1"
     inkscape:groupmode="layer"
     id="layer1">
    <path
       style="fill:#faebd7;fill-opacity:1;stroke:none;stroke-width:0.14746"
       d="m 50.647231,73.031745 c -17.2188,-0.0657 -35.320626,-0.16809 -40.226286,-0.22742 l -8.9193702,-0.10787 1.0082001,-0.86471 c 0.55451,-0.47558 1.7506,-1.50857 2.65799,-2.2955 C 23.311475,53.801146 46.500259,43.665206 71.769969,40.424086 c 4.18249,-0.53645 10.61363,-1.03392 14.63504,-1.13207 l 1.28245,-0.0313 0.10044,-2.16179 c 0.0552,-1.18898 0.17518,-2.51849 0.26652,-2.954459 1.25459,-5.98757 4.77999,-11.976407 11.410687,-19.384087 C 101.4211,12.57519 109.53217,4.7128 112.24264,2.37459 l 1.47106,-1.26901 14.14469,-0.0183 c 12.5253,-0.0162 14.47282,0.0112 17.01088,0.23985 5.78746,0.52122 10.83539,1.28346 16.44603,2.48336 1.65965,0.35493 3.11938,0.64483 3.24386,0.64422 0.12446,-5.9e-4 0.37789,-0.25471 0.56314,-0.56466 0.43546,-0.72847 1.53855,-1.25352 3.22908,-1.53697 1.83279,-0.30731 6.47047,-0.47978 9.25859,-0.34432 2.64181,0.12834 2.67663,0.13367 4.75262,0.72651 0.78833,0.22513 2.24806,0.54422 3.24385,0.7091 4.28566,0.70961 5.75443,1.38852 6.62843,3.06383 0.71011,1.3612 0.43342,2.45708 -0.98799,3.91291 l -0.81238,0.83206 -2.41404,0.27854 c -1.89861,0.21907 -2.91332,0.25923 -4.75262,0.18812 -2.61136,-0.10095 -8.90496,0.25426 -8.89993,0.50231 0.002,0.0485 0.35744,0.32451 0.79212,0.61333 1.15829,0.76964 2.2027,1.68435 2.45471,2.14987 0.20461,0.37795 0.19588,0.43594 -0.11822,0.78371 -0.73217,0.81069 -2.35603,0.73165 -4.41283,-0.2148 -1.1855,-0.54551 -2.41161,-1.43898 -4.94667,-3.60461 -2.35872,-2.0149897 -3.46815,-2.3743197 -7.27436,-2.3560997 -2.92855,0.0141 -4.93268,0.14951 -12.44732,0.8414197 -2.94588,0.27123 -6.30665,0.57588 -7.4684,0.67698 -2.84103,0.24724 -12.29358,0.24923 -14.48417,0.003 -2.79514,-0.31413 -5.32536,-0.74993 -7.69471,-1.3253097 -1.24473,-0.30228 -2.27708,-0.5372503 -2.29411,-0.5221603 -0.0171,0.0151 -0.27478,1.17682 -0.57276,2.58163 -1.94755,9.1815 -4.49197,16.326397 -7.77188,21.823947 -0.5927,0.993439 -1.73842,2.786779 -2.54602,3.985179 -1.88421,2.79596 -2.40646,3.63612 -3.18119,5.11757 l -0.63235,1.20923 0.6034,1.457 c 1.73437,4.18789 2.41277,7.77237 2.53966,13.4189 0.0602,2.678239 0.0159,4.379789 -0.1725,6.629519 -0.13941,1.66457 -0.29167,4.08039 -0.33836,5.36845 l -0.0849,2.34194 -11.181461,-0.0247 c -6.1498,-0.0137 -25.26957,-0.0786 -42.488368,-0.14436 z"
       id="path935" />
    <path
       style="fill:#faebd7;fill-opacity:1;stroke:none;stroke-width:0.14746"
       d="m 41.210042,-62.61959 c -7.09759,-3.13511 -12.26115,-6.95188 -13.79381,-10.19605 -0.6958,-1.47276 -0.5991,-2.032649 0.5459,-3.160599 1.32741,-1.30768 3.1295,-2.53648 4.93366,-3.36417 4.14888,-1.90338 11.41697,-3.54749 16.26606,-3.67954 8.25673,-0.22484 15.40228,2.59446 18.50914,7.30285 1.27795,1.936709 2.00049,4.774159 1.77413,6.967139 -0.12919,1.25175 -0.82359,3.18796 -1.51262,4.2179 -0.71747,1.07236 -2.23024,2.57668 -3.39277,3.37382 -3.09407,2.12155 -7.43648,2.70485 -12.99731,1.74583 -2.15736,-0.37206 -8.06614,-2.20616 -10.33232,-3.20716 z"
       id="path933" />
    <g
       id="g967">
      <path
         style="fill:#e58a20;fill-opacity:1;stroke:none;stroke-width:0.14746"
         d="m 106.55711,-81.38139 c -0.32435,-0.24845 -0.82989,-1.27094 -1.12127,-2.26781 -0.15424,-0.52771 -0.54397,-2.60691 -0.86606,-4.62049 -0.73688,-4.60656 -1.00992,-5.86459 -2.10809,-9.71287 -1.32246,-4.6343 -1.35918,-5.71193 -0.20656,-6.06564 0.45232,-0.1388 0.69603,-0.0927 2.31427,0.43805 3.78963,1.24287 7.57149,4.02524 9.01483,6.63238 0.84726,1.53041 1.04726,2.9311 0.8803,6.16514 -0.19264,3.73161 -0.58687,4.79194 -2.5874,6.9594 -2.04591,2.21661 -4.29127,3.25988 -5.32002,2.47184 z"
         id="path957" />
      <path
         style="fill:#e58a20;fill-opacity:1;stroke:none;stroke-width:0.14746"
         d="m 94.92668,-95.68887 c -1.90746,-1.18233 -2.79735,-3.27747 -2.41359,-5.68246 0.26874,-1.68412 1.20884,-2.82106 2.64523,-3.19911 1.50599,-0.39636 2.52088,-0.17991 3.47562,0.74125 1.82414,1.76 2.6249,7.54054 1.19246,8.60829 -0.59,0.43982 -1.99434,0.50097 -3.29277,0.14338 -0.61429,-0.16918 -1.3374,-0.44427 -1.60695,-0.61135 z m 2.80328,0.0857 c 0.91537,-0.0593 1.32185,-0.36673 1.63075,-1.23353 0.30728,-0.86225 0.34315,-1.91469 0.1179,-3.45902 -0.33951,-2.32762 -0.81166,-3.15623 -2.02223,-3.54888 -1.66382,-0.5396 -3.33331,0.62328 -3.79636,2.64442 -0.51096,2.23008 0.0111,3.95838 1.48759,4.92476 0.66753,0.43691 1.77285,0.72465 2.58235,0.67225 z"
         id="path929" />
      <path
         style="fill:#e58a20;fill-opacity:1;stroke:none;stroke-width:0.14746"
         d="m 95.71031,-84.15791 c -1.95157,-1.27078 -2.74889,-3.64227 -2.13053,-6.33695 0.39904,-1.73892 1.75234,-2.94433 3.51108,-3.12736 1.61633,-0.16819 2.62319,0.48771 3.4391,2.24038 0.85288,1.83207 1.25482,5.38428 0.76484,6.75922 -0.22527,0.63212 -0.35391,0.7916 -0.86518,1.07261 -1.07926,0.59325 -3.31742,0.30493 -4.71931,-0.6079 z m 2.92076,0.13039 c 0.94739,-0.0891 1.31483,-0.38778 1.65648,-1.34649 0.63763,-1.78925 0.17236,-5.63672 -0.8189,-6.77201 -1.08176,-1.23895 -3.22942,-0.79479 -4.26864,0.88281 -1.21301,1.95815 -0.96083,5.07561 0.51434,6.3584 0.56517,0.49148 2.10256,0.95389 2.91672,0.87729 z"
         id="path927" />
    </g>
  </g>
</svg>
