<?xml version="1.0" standalone="no"?>
<!DOCTYPE svg PUBLIC "-//W3C//DTD SVG 20010904//EN" "http://www.w3.org/TR/2001/REC-SVG-20010904/DTD/svg10.dtd">
<!-- Created using Krita: https://krita.org -->
<svg xmlns="http://www.w3.org/2000/svg" 
    xmlns:xlink="http://www.w3.org/1999/xlink"
    xmlns:krita="http://krita.org/namespaces/svg/krita"
    xmlns:sodipodi="http://sodipodi.sourceforge.net/DTD/sodipodi-0.dtd"
    width="262pt"
    height="74pt"
    viewBox="0 0 262 74">
<defs/>
<path id="shape0" transform="matrix(0.992802129500279 0 0 1 -5.31152251749279 0)" fill="#003366" fill-rule="evenodd" stroke="#003366" stroke-width="0.2424" stroke-linecap="square" stroke-linejoin="bevel" d="M0 0C10.7131 19.8501 18.8307 20.5572 24.3528 2.12132C28.7959 14.5619 36.0006 15.9691 45.9669 6.34285C47.7785 4.59311 49.6813 2.47883 51.6754 0"/><path id="shape1" transform="matrix(0.992802129500279 0 0 1 18.2551921757918 3.07591451745696)" fill="#003366" fill-rule="evenodd" stroke="#003366" stroke-width="0.2424" stroke-linecap="square" stroke-linejoin="bevel" d="M1.06066 0.169706L1.54856 1.67584L0 1.1243L0.318198 0L1.06066 0.169706"/><path id="shape2" transform="matrix(0.992802129500279 0 0 1 12.1055223662428 2.05768078400559)" fill="#e6e6e6" fill-rule="evenodd" stroke="#003366" stroke-width="0.2424" stroke-linecap="square" stroke-linejoin="bevel" d="M0.106066 0L6.40639 1.14551L6.13062 2.07889L0 0.254558L0.106066 0"/><path id="shape3" transform="matrix(0.992802129500279 0 0 1 21.1040120448423 5.37000031093973)" fill="none" stroke="#003366" stroke-width="0.2424" stroke-linecap="square" stroke-linejoin="bevel" d="M0.33 0L0 0.24L0.09 0.99"/><path id="shape4" transform="matrix(0.992802129500279 0 0 1 19.4361043707048 3.27000018934319)" fill="#e6e6e6" fill-rule="evenodd" stroke="#003366" stroke-width="0.2424" stroke-linecap="square" stroke-linejoin="bevel" d="M2.19 2.04L0.39 1.5L0 0L3.3 0.45L2.19 2.04"/><path id="shape5" transform="matrix(0.992802129500279 0 0 1 21.1040117924683 3.0600001365428)" fill="#e6e6e6" fill-rule="evenodd" stroke="#003366" stroke-width="0.2424" stroke-linecap="square" stroke-linejoin="bevel" d="M0 2.76L1.98 0L19.44 3.24C18.1178 4.28218 16.4727 5.64727 14.7 7.14L0 2.76"/><path id="shape6" transform="matrix(0.992802129500279 0 0 1 35.7143589850268 6.19425562106807)" fill="#003366" fill-rule="evenodd" stroke="#003366" stroke-width="0.2424" stroke-linecap="square" stroke-linejoin="bevel" d="M4.83661 0L35.7437 5.51543L27.5772 12.5582L0 4.07294L4.83661 0"/><text id="shape7" krita:useRichText="true" transform="matrix(0.888434277648394 0.446315900979198 -0.443103376921983 0.894875475433944 36.4327141821772 10.2706295163219)" fill="#e6e6e6" stroke="#000000" stroke-opacity="0" stroke-width="0" stroke-linecap="square" stroke-linejoin="bevel" font-size="10" font-size-adjust="0.449219" font-stretch="normal" letter-spacing="0" word-spacing="0"><tspan x="0">d</tspan></text><text id="shape8" krita:useRichText="true" transform="matrix(0.894889096917049 0.446288588492906 -0.446288588492906 0.894889096917049 48.3157943703011 -2.11922526831248)" fill="#ffffff" stroke="#000000" stroke-opacity="0" stroke-width="0" stroke-linecap="square" stroke-linejoin="bevel" font-size="11" font-size-adjust="0.449219" font-stretch="normal" letter-spacing="0" word-spacing="0"><tspan x="0">d</tspan></text><text id="shape9" krita:useRichText="true" transform="matrix(0.869036816518666 0.483512635110982 -0.480032373778474 0.875337381635242 49.3459840550022 14.8029467651458)" fill="#e6e6e6" stroke="#000000" stroke-opacity="0" stroke-width="0" stroke-linecap="square" stroke-linejoin="bevel" font-size="12" font-size-adjust="0.449219" font-stretch="normal" letter-spacing="0" word-spacing="0"><tspan x="0">l</tspan></text><text id="shape10" krita:useRichText="true" transform="translate(53.6269777606648, 6.96353249010134)" fill="#000000" stroke="#000000" stroke-opacity="0" stroke-width="0" stroke-linecap="square" stroke-linejoin="bevel"></text><text id="shape11" krita:useRichText="true" transform="matrix(0.879316126948128 0.476238542002797 -0.476238542002796 0.879316126948127 53.2665189491939 15.0650027571831)" fill="#e6e6e6" stroke="#000000" stroke-opacity="0" stroke-width="0" stroke-linecap="square" stroke-linejoin="bevel" font-size="18" font-size-adjust="0.449219" font-stretch="normal" letter-spacing="0" word-spacing="0"><tspan x="0">e</tspan></text><text id="shape12" krita:useRichText="true" transform="matrix(0.882959060967627 0.457206505587581 -0.453915592368731 0.889360563128586 42.2411402964458 12.074463689204)" fill="#e6e6e6" stroke="#000000" stroke-opacity="0" stroke-width="0" stroke-linecap="square" stroke-linejoin="bevel" font-size="12" font-size-adjust="0.449219" font-stretch="normal" letter-spacing="0" word-spacing="0"><tspan x="0">d</tspan></text><text id="shape13" krita:useRichText="true" transform="matrix(0.867418148556586 0.486452583684746 -0.482951160983129 0.873706978240665 32.1339742173973 8.46075915599108)" fill="#003366" stroke="#000000" stroke-opacity="0" stroke-width="0" stroke-linecap="square" stroke-linejoin="bevel" font-size="10" font-size-adjust="0.449219" font-stretch="normal" letter-spacing="0" word-spacing="0"><tspan x="0">a</tspan></text><text id="shape14" krita:useRichText="true" transform="translate(15.6129177354742, 21.3702770464867)" fill="#000000" stroke="#000000" stroke-opacity="0" stroke-width="0" stroke-linecap="square" stroke-linejoin="bevel"></text><text id="shape15" krita:useRichText="true" transform="matrix(0.888869702461365 0.445435448923211 -0.442229262245876 0.895314057100958 27.9940678113475 6.94835500772037)" fill="#003366" stroke="#000000" stroke-opacity="0" stroke-width="0" stroke-linecap="square" stroke-linejoin="bevel" font-size="8" font-size-adjust="0.449219" font-stretch="normal" letter-spacing="0" word-spacing="0"><tspan x="0">p</tspan></text>
</svg>
