<?xml version="1.0" encoding="UTF-8" standalone="no"?>
<svg
   xmlns:dc="http://purl.org/dc/elements/1.1/"
   xmlns:cc="http://creativecommons.org/ns#"
   xmlns:rdf="http://www.w3.org/1999/02/22-rdf-syntax-ns#"
   xmlns:svg="http://www.w3.org/2000/svg"
   xmlns="http://www.w3.org/2000/svg"
   xmlns:sodipodi="http://sodipodi.sourceforge.net/DTD/sodipodi-0.dtd"
   xmlns:inkscape="http://www.inkscape.org/namespaces/inkscape"
   width="140mm"
   height="110mm"
   viewBox="0 0 140 110"
   version="1.1"
   id="svg2574"
   inkscape:version="1.0.2-2 (e86c870879, 2021-01-15)"
   sodipodi:docname="swimmer.svg">
  <defs
     id="defs2568" />
  <sodipodi:namedview
     id="base"
     pagecolor="#ffffff"
     bordercolor="#666666"
     borderopacity="1.0"
     inkscape:pageopacity="0.0"
     inkscape:pageshadow="2"
     inkscape:zoom="0.98994949"
     inkscape:cx="558.81315"
     inkscape:cy="195.06804"
     inkscape:document-units="mm"
     inkscape:current-layer="layer1"
     inkscape:document-rotation="0"
     showgrid="false"
     inkscape:window-width="1920"
     inkscape:window-height="986"
     inkscape:window-x="-11"
     inkscape:window-y="-11"
     inkscape:window-maximized="1" />
  <metadata
     id="metadata2571">
    <rdf:RDF>
      <cc:Work
         rdf:about="">
        <dc:format>image/svg+xml</dc:format>
        <dc:type
           rdf:resource="http://purl.org/dc/dcmitype/StillImage" />
        <dc:title></dc:title>
      </cc:Work>
    </rdf:RDF>
  </metadata>
  <g
     inkscape:label="レイヤー 1"
     inkscape:groupmode="layer"
     id="layer1">
    <path
       style="fill:#e58a20;fill-opacity:1;stroke:none;stroke-width:0.133635"
       d="m 120.18163,70.520433 c 0,-0.217247 -5.51834,-5.778254 -7.60778,-7.666601 -3.49941,-3.162615 -7.1879,-6.145181 -11.05727,-8.941068 l -2.027529,-1.465029 -1.357641,-1.880553 -1.357645,-1.880549 0.422817,-1.017487 c 0.968187,-2.329884 2.716719,-5.349635 4.187258,-7.231502 0.92113,-1.178774 2.89254,-3.202567 4.03115,-4.138258 2.83374,-2.328709 6.30534,-3.965038 9.99628,-4.711705 2.16887,-0.438759 6.17249,-0.438042 8.34581,0.0016 7.69364,1.555967 13.2902,6.371289 14.89225,12.813393 0.37674,1.514906 0.40231,4.371273 0.0534,5.968719 -1.48533,6.801191 -7.32975,13.459783 -16.95093,19.312318 -0.86361,0.525333 -1.57021,0.901907 -1.57021,0.83683 z"
       id="path3151" />
    <path
       style="fill:#ffe4c4;fill-opacity:1;stroke:none;stroke-width:0.377976"
       d="m 20.404178,122.3621 c 0,-0.17165 0.445471,-0.72444 0.989937,-1.22842 1.932266,-1.7886 7.300766,-8.58191 12.821512,-16.22437 C 45.119841,89.814415 49.482487,84.303546 55.62358,77.866903 59.918961,73.364798 66.568353,67.250749 71.365767,63.392116 L 74.93543,60.520982 72.899715,58.815189 C 69.34738,55.838579 63.12637,49.636571 60.748369,46.700972 53.003605,37.140179 47.761161,25.642475 45.711674,13.722548 45.172118,10.584451 44.459965,10.290235 44.79678,13.344572 c 0.228219,2.06954 0.169076,2.2817 -1.238023,4.44122 -4.026762,6.179991 -7.846343,9.551193 -17.178718,15.162125 -7.931491,4.768673 -9.015948,5.766493 -10.346691,9.520092 -1.593668,4.495223 -2.383,6.1982 -2.763797,5.962853 -0.191916,-0.11861 -0.553084,-1.066628 -0.802594,-2.106705 -0.24951,-1.040072 -0.564257,-1.890638 -0.699437,-1.890143 -0.13518,2.64e-4 -0.739259,0.945303 -1.342397,2.099574 C 9.141702,48.989776 6.170022,51.736521 3.828757,52.630657 1.621241,53.473717 0.92898404,53.03352 0.96564904,50.810041 1.021649,47.413936 4.94199,41.114607 12.380392,32.468473 15.035486,29.382283 20.000297,23.54048 23.413305,19.486685 36.091906,4.4276961 40.34544,0.95070794 46.059588,0.97482274 c 4.428702,0.01869 8.010793,2.21781076 15.013723,9.21723226 6.168991,6.165902 10.628522,11.561331 20.491249,24.791653 15.630892,20.967996 13.586989,18.566762 19.91551,23.397305 7.60504,5.804914 14.68166,12.9036 18.23092,18.287762 4.53996,6.887059 6.43999,12.516969 6.78823,20.114042 0.32732,7.140433 -1.26547,13.860763 -5.19864,21.934263 l -1.92779,3.95711 H 69.888487 c -27.216372,0 -49.484309,-0.14044 -49.484309,-0.31209 z"
       id="path3161" />
  </g>
</svg>
