<?xml version="1.0" encoding="UTF-8" standalone="no"?>
<svg
   xmlns:dc="http://purl.org/dc/elements/1.1/"
   xmlns:cc="http://creativecommons.org/ns#"
   xmlns:rdf="http://www.w3.org/1999/02/22-rdf-syntax-ns#"
   xmlns:svg="http://www.w3.org/2000/svg"
   xmlns="http://www.w3.org/2000/svg"
   xmlns:sodipodi="http://sodipodi.sourceforge.net/DTD/sodipodi-0.dtd"
   xmlns:inkscape="http://www.inkscape.org/namespaces/inkscape"
   width="210mm"
   height="160mm"
   viewBox="0 0 210 160"
   version="1.1"
   id="svg8"
   sodipodi:docname="カヌー.svg"
   inkscape:version="1.0.2-2 (e86c870879, 2021-01-15)">
  <defs
     id="defs2" />
  <sodipodi:namedview
     id="base"
     pagecolor="#ffffff"
     bordercolor="#666666"
     borderopacity="1.0"
     inkscape:pageopacity="0.0"
     inkscape:pageshadow="2"
     inkscape:zoom="2.8"
     inkscape:cx="354.93702"
     inkscape:cy="236.35428"
     inkscape:document-units="mm"
     inkscape:current-layer="layer1"
     inkscape:document-rotation="0"
     showgrid="false"
     inkscape:window-width="1898"
     inkscape:window-height="1020"
     inkscape:window-x="0"
     inkscape:window-y="0"
     inkscape:window-maximized="0"
     units="mm"
     height="287mm" />
  <metadata
     id="metadata5">
    <rdf:RDF>
      <cc:Work
         rdf:about="">
        <dc:format>image/svg+xml</dc:format>
        <dc:type
           rdf:resource="http://purl.org/dc/dcmitype/StillImage" />
        <dc:title></dc:title>
      </cc:Work>
    </rdf:RDF>
  </metadata>
  <g
     inkscape:label="レイヤー 1"
     inkscape:groupmode="layer"
     id="layer1">
    <path
       style="fill:#ffd700;fill-opacity:1;stroke:none;stroke-width:0.240467"
       d="m 43.761769,155.93269 c -0.540429,-0.0991 -2.613864,-1.01366 -4.607627,-2.03236 -5.730498,-2.92799 -8.053154,-3.46272 -13.947289,-3.21096 -5.129028,0.21908 -9.576134,1.13193 -16.2653732,3.33872 -1.9990738,0.6595 -3.6726474,1.16299 -3.7190513,1.11886 -0.046393,-0.0442 4.2113272,-4.49988 9.4616225,-9.90163 5.250296,-5.40176 18.076607,-18.6586 28.502918,-29.45961 C 85.640732,71.806196 89.161704,68.519373 110.42328,53.020644 131.43012,37.707629 144.12207,30.65414 176.03683,16.556312 188.67446,10.973837 205.23263,3.8855043 205.3577,4.0044363 c 0.0318,0.030393 -0.42789,1.5013151 -1.02189,3.2687243 -2.51784,7.4916314 -3.39344,12.2297204 -3.15005,17.0457234 0.24655,4.878568 0.88583,6.582933 4.22284,11.258221 2.37457,3.326855 2.78543,4.217415 2.40037,5.202748 -0.45034,1.152299 -2.51558,3.433352 -6.75207,7.457614 -20.83451,19.790814 -46.3553,39.378447 -78.59984,60.326703 -11.40254,7.40786 -16.93458,10.86006 -43.688033,27.26303 -7.67332,4.70465 -17.620176,10.83532 -22.104128,13.62376 -11.032183,6.86058 -10.979931,6.83433 -12.90313,6.48173 z"
       id="path849" />
    <path
       style="fill:#003366;fill-opacity:1;stroke:none;stroke-width:0.240467"
       d="M 16.710324,142.95673 C 38.888801,118.38595 60.999422,96.421115 80.750647,76.640596 114.70089,42.639997 147.69457,29.962841 188.95169,17.747018 c 0.9305,-0.275513 1.74285,-0.452411 1.8052,-0.393107 0.23962,0.227852 -5.45107,10.081643 -8.94597,15.490594 -14.48436,22.416876 -33.89093,42.58956 -56.06827,58.281654 -31.06236,21.978851 -54.258018,42.817581 -101.239712,52.997561 -5.073655,0.71931 -11.297528,2.72005 -7.792614,-1.16699 z"
       id="path851"
       sodipodi:nodetypes="cssccccc" />
  </g>
</svg>
