<?xml version="1.0" encoding="UTF-8" standalone="no"?>
<svg
   xmlns:dc="http://purl.org/dc/elements/1.1/"
   xmlns:cc="http://creativecommons.org/ns#"
   xmlns:rdf="http://www.w3.org/1999/02/22-rdf-syntax-ns#"
   xmlns:svg="http://www.w3.org/2000/svg"
   xmlns="http://www.w3.org/2000/svg"
   xmlns:sodipodi="http://sodipodi.sourceforge.net/DTD/sodipodi-0.dtd"
   xmlns:inkscape="http://www.inkscape.org/namespaces/inkscape"
   width="315mm"
   height="39mm"
   viewBox="0 0 315 39"
   version="1.1"
   id="svg851"
   inkscape:version="1.0.2-2 (e86c870879, 2021-01-15)"
   sodipodi:docname="波.svg">
  <defs
     id="defs845" />
  <sodipodi:namedview
     id="base"
     pagecolor="#ffffff"
     bordercolor="#666666"
     borderopacity="1.0"
     inkscape:pageopacity="0.0"
     inkscape:pageshadow="2"
     inkscape:zoom="0.49497475"
     inkscape:cx="532.88484"
     inkscape:cy="353.79619"
     inkscape:document-units="mm"
     inkscape:current-layer="layer1"
     inkscape:document-rotation="0"
     showgrid="false"
     inkscape:window-width="1920"
     inkscape:window-height="986"
     inkscape:window-x="-11"
     inkscape:window-y="-11"
     inkscape:window-maximized="1" />
  <metadata
     id="metadata848">
    <rdf:RDF>
      <cc:Work
         rdf:about="">
        <dc:format>image/svg+xml</dc:format>
        <dc:type
           rdf:resource="http://purl.org/dc/dcmitype/StillImage" />
        <dc:title></dc:title>
      </cc:Work>
    </rdf:RDF>
  </metadata>
  <g
     inkscape:label="レイヤー 1"
     inkscape:groupmode="layer"
     id="layer1">
    <path
       style="fill:#006496;fill-opacity:0.7;stroke:none;stroke-width:0.379873"
       d="M 190.05907,44.454342 C 136.27064,44.259092 71.603563,44.012782 46.354472,43.906982 L 0.44703779,43.714592 V 28.474932 13.23527 l 2.62638501,1.611211 c 3.848631,2.361031 9.1329282,4.688771 12.9450272,5.702301 3.771791,1.00281 8.991749,1.33853 12.155292,0.78177 7.972188,-1.40306 14.646075,-6.990951 19.840545,-16.6120143 l 1.695119,-3.13964 0.910926,2.4461299 C 53.931554,12.9167 62.463676,21.416142 74.536425,27.849542 c 8.917599,4.75205 16.133963,7.00583 25.743775,8.04014 5.1578,0.55513 13.08378,0.43539 17.99158,-0.27181 3.71394,-0.53517 10.73855,-2.27954 14.1803,-3.5213 8.50049,-3.06692 18.65235,-8.76359 25.68989,-14.41575 0.80348,-0.6453 0.80957,-0.64289 6.95203,2.75457 11.4317,6.32303 21.84014,9.73564 35.01942,11.48179 5.52437,0.73194 18.89926,0.86622 24.7989,0.24897 17.0268,-1.7814 36.9534,-8.02734 47.94047,-15.0268 l 3.39882,-2.165251 2.00195,2.128821 c 7.56478,8.0442 27.01566,12.00887 37.65971,7.67619 l 2.37451,-0.96654 v 10.53952 10.53952 l -15.21579,-0.0412 c -8.36868,-0.0226 -59.22449,-0.20089 -113.01292,-0.39613 z"
       id="path1418" />
    <path
       style="fill:#006496;fill-opacity:0;stroke:none;stroke-width:2.02031"
       d="M 438.88341,605.16257 C 298.32068,604.43436 133.53955,603.70691 72.703114,603.54601 l -110.611703,-0.29256 v -55.55839 c 0,-30.55711 0.518049,-55.55839 1.15122,-55.55839 0.633171,0 5.184188,2.77476 10.113373,6.16613 4.929185,3.39137 15.970938,9.49458 24.5372292,13.56269 13.6427078,6.4789 17.8794028,7.49736 34.1481578,8.2089 16.570039,0.72471 19.775098,0.26202 29.718712,-4.29032 6.130099,-2.80645 15.361553,-8.98874 20.514344,-13.73842 9.90424,-9.12941 27.651683,-36.10939 31.577473,-48.00463 l 2.33497,-7.07503 4.5088,12.45211 c 6.45455,17.82575 16.18994,33.12579 31.70258,49.82342 45.20206,48.655 107.33418,73.03538 168.78619,66.23099 43.16014,-4.779 82.71242,-22.98438 125.57143,-57.79886 14.6258,-11.88057 15.05538,-12.07174 20.20305,-8.99062 2.89274,1.73143 13.89631,8.42445 24.4524,14.87336 73.30227,44.78173 160.62747,51.57741 252.53814,19.65264 23.90932,-8.3048 55.03006,-23.50301 71.64418,-34.98835 l 15.25459,-10.54549 9.95942,10.11774 c 16.63541,16.89989 38.55714,26.87177 68.10978,30.98216 16.88375,2.34831 36.92228,0.0741 47.48775,-5.38955 l 5.73722,-2.96683 v 38.43768 38.43767 l -133.84521,-0.40374 c -73.61486,-0.22206 -248.85108,-0.99955 -389.4138,-1.72775 z"
       id="path3163"
       transform="scale(0.26458333)" />
  </g>
</svg>
